<svg width="35" height="34" viewBox="0 0 35 34" fill="none" xmlns="http://www.w3.org/2000/svg">
<g clip-path="url(#clip0_336_17)">
<path d="M17.5078 33.2114C15.951 33.2114 14.4724 32.4702 13.2286 31.0588C11.9221 30.7277 10.7096 30.2782 9.57525 29.6947C8.34705 29.0561 7.22054 28.2754 6.22702 27.3687C6.13314 27.4475 4.73283 28.6066 4.73283 28.6066L3.7706 27.3608C3.1213 26.5171 2.80055 25.6261 2.59716 24.9559C2.38594 24.2305 2.24512 23.4577 2.15907 22.5983C2.08866 21.8334 2.06519 21.0528 2.08866 20.2801C2.08866 20.1382 2.10431 19.9883 2.11213 19.8464L0.782227 19.8779L0.797873 18.2852C0.797873 17.5125 0.92304 16.7318 1.14991 15.9039C1.34548 15.1943 1.62711 14.4767 1.97132 13.7671C2.30771 13.0811 2.69886 12.4345 3.13694 11.8274C3.26211 11.6539 3.38728 11.4962 3.51245 11.3385C3.28558 11.0704 3.08218 10.7945 2.91008 10.5106C2.40941 9.69845 2.08084 8.76014 1.97914 7.79029C1.95567 7.54585 1.94003 7.31719 1.94785 7.06487C1.94785 6.78101 1.97132 6.56023 1.99479 6.35522C2.04955 5.88212 2.15907 5.40902 2.31553 4.96746C2.63627 4.07646 3.16041 3.25643 3.83319 2.59409C4.50596 1.93175 5.3352 1.41923 6.22702 1.12748C6.85286 0.914589 7.52563 0.804199 8.21406 0.804199C8.48004 0.804199 8.75384 0.819969 9.02764 0.851509C9.4892 0.914589 9.95858 1.02498 10.4201 1.19845C10.866 1.36403 11.3041 1.58481 11.7109 1.8529C12.016 2.05002 12.3055 2.27869 12.5793 2.53889C13.166 2.07368 14.2925 1.31672 15.7476 1.31672C16.3265 1.31672 16.9132 1.435 17.4843 1.67155C18.0475 1.40346 18.6343 1.26941 19.2288 1.26941C20.6526 1.26941 21.7713 2.03426 22.4284 2.54678C22.71 2.28657 22.9995 2.05002 23.3124 1.8529C23.7192 1.58481 24.1495 1.36403 24.6032 1.19845C25.0569 1.02498 25.5263 0.906704 25.9879 0.851509C26.2617 0.819969 26.5355 0.804199 26.8014 0.804199C27.4899 0.804199 28.1626 0.914589 28.7885 1.12748C29.6725 1.41923 30.5017 1.93175 31.1745 2.59409C31.8473 3.25643 32.3714 4.07646 32.6922 4.96746C32.8486 5.40902 32.9581 5.87424 33.0129 6.35522C33.0364 6.55234 33.052 6.78101 33.0598 7.05698C33.0598 7.31719 33.0598 7.54585 33.0285 7.7824C32.9268 8.75225 32.5983 9.69056 32.0898 10.5106C31.9177 10.7945 31.7143 11.0704 31.4874 11.3385C31.6126 11.4962 31.7377 11.6539 31.8629 11.8274C32.301 12.4345 32.6922 13.0811 33.0285 13.7671C33.3806 14.4767 33.6544 15.1943 33.85 15.9039C34.0846 16.7318 34.1942 17.5125 34.202 18.2852L34.2176 19.8779L32.8877 19.8464C32.8955 19.9883 32.9034 20.1382 32.9112 20.2801C32.9425 21.0607 32.9112 21.8413 32.8408 22.5983C32.7547 23.4656 32.6139 24.2305 32.4027 24.9559C32.1993 25.6419 31.8864 26.525 31.2293 27.3687L30.267 28.6145C30.267 28.6145 28.8667 27.4554 28.7728 27.3766C27.7793 28.2833 26.6528 29.0718 25.4246 29.7026C24.2825 30.294 23.0621 30.7513 21.7869 31.0667C20.5196 32.486 19.0567 33.2193 17.5078 33.2193V33.2114Z" fill="white"/>
<path d="M26.7859 1.5769C27.3883 1.5769 27.975 1.67151 28.5226 1.85287C29.2971 2.11307 30.0246 2.55463 30.6113 3.13812C31.198 3.71372 31.6596 4.43126 31.9334 5.21187C32.0742 5.59823 32.1681 6.00825 32.215 6.42615C32.2385 6.59962 32.2463 6.80463 32.2541 7.04907C32.2541 7.26985 32.2541 7.46697 32.2228 7.67986C32.129 8.52356 31.8473 9.35148 31.4014 10.069C31.1589 10.4633 30.8695 10.8339 30.5174 11.1729L30.3923 11.2912L30.5253 11.4252C30.76 11.6854 30.979 11.9614 31.2059 12.2689C31.6205 12.8366 31.9882 13.4517 32.3011 14.0903C32.6296 14.7527 32.8878 15.4229 33.0756 16.0852C33.2868 16.8501 33.3963 17.5597 33.4041 18.2615V19.0421L32.0195 19.0106L32.0429 19.2077C32.082 19.5546 32.1055 19.9173 32.1133 20.2879C32.1368 21.037 32.1133 21.7782 32.0429 22.5036C31.9647 23.3158 31.8239 24.0412 31.6283 24.7193C31.4484 25.3264 31.1667 26.1307 30.5957 26.8719L30.1263 27.479L29.5317 26.9823C29.3127 26.8009 29.078 26.6038 28.8511 26.4067L28.7338 26.3042L28.6243 26.4146C27.5916 27.4317 26.3947 28.2991 25.0648 28.9851C23.9227 29.5764 22.6945 30.0259 21.4115 30.3334L21.3567 30.3492L21.3176 30.3886C20.1989 31.7133 18.8847 32.415 17.5 32.415C16.1232 32.415 14.8089 31.7133 13.6902 30.3886L13.6511 30.3492L13.5963 30.3334C12.3134 30.0338 11.0773 29.5764 9.92737 28.9851C8.59746 28.2991 7.40055 27.4317 6.36791 26.4146L6.25839 26.3042L6.14105 26.4067C5.89854 26.6117 5.67949 26.8009 5.46045 26.9823L4.8659 27.479L4.39652 26.8719C3.82545 26.1307 3.54382 25.3343 3.35607 24.7193C3.16049 24.0491 3.0275 23.3236 2.94145 22.5036C2.87104 21.7782 2.84757 21.037 2.87104 20.2879C2.88669 19.9252 2.91016 19.5625 2.94145 19.2077L2.96492 19.0106L2.3469 19.0263L1.57243 19.0421V18.2615C1.58807 17.5597 1.68977 16.8501 1.90099 16.0852C2.08875 15.4229 2.3469 14.7527 2.67547 14.0903C2.99621 13.4517 3.36389 12.8366 3.77069 12.2689C3.99755 11.9614 4.21659 11.6854 4.44346 11.4331L4.45911 11.4173L4.56863 11.2912L4.45128 11.1808C4.10707 10.8417 3.8098 10.4711 3.56729 10.0769C3.12138 9.35936 2.83975 8.53144 2.74588 7.68775C2.72241 7.47485 2.71458 7.27773 2.71458 7.05695C2.71458 6.81252 2.73023 6.61539 2.7537 6.43404C2.80064 6.01613 2.89451 5.60612 3.03533 5.21975C3.31695 4.43914 3.77069 3.72161 4.35741 3.146C4.94413 2.56252 5.67167 2.12096 6.44614 1.86075C7.00157 1.67151 7.58048 1.5769 8.18284 1.5769C8.41753 1.5769 8.66005 1.59267 8.90256 1.6242C9.30153 1.67151 9.71615 1.77402 10.1229 1.93172C10.5141 2.07365 10.8974 2.27077 11.2495 2.50732C11.6562 2.77541 12.0396 3.09869 12.3838 3.48506L12.4855 3.60333L12.6106 3.50871C12.6106 3.50871 12.6967 3.43775 12.7671 3.38255C13.1739 3.03562 14.2535 2.10519 15.7164 2.10519C16.2718 2.10519 16.8429 2.23923 17.3983 2.50732L17.4765 2.54675L17.5548 2.50732C18.0867 2.20769 18.6343 2.05788 19.1898 2.05788C20.5431 2.05788 21.6305 2.94888 22.1547 3.37467C22.2251 3.42986 22.2798 3.47717 22.3346 3.5166L22.4598 3.61122L22.5615 3.49294C22.9057 3.10658 23.289 2.7833 23.6958 2.51521C24.0557 2.27866 24.4312 2.08153 24.8301 1.9396C25.2369 1.78979 25.6437 1.68728 26.0505 1.63209C26.2852 1.60055 26.5277 1.58478 26.7624 1.58478M26.7624 0.00778578C26.4651 0.00778578 26.16 0.0235557 25.8549 0.0629806C25.3308 0.133945 24.8067 0.260105 24.2825 0.457229C23.7819 0.638584 23.289 0.890903 22.8275 1.19842C22.6632 1.30092 22.4989 1.4192 22.3424 1.54536C21.5914 1.03283 20.504 0.480884 19.1819 0.480884C18.5796 0.480884 17.9929 0.599159 17.414 0.827823C16.8507 0.638583 16.2718 0.536079 15.7007 0.536079C14.3708 0.536079 13.2912 1.06437 12.5715 1.54536C12.4151 1.4192 12.2508 1.30092 12.0787 1.19053C11.6328 0.890903 11.1478 0.646468 10.6393 0.457229C10.1229 0.26799 9.5988 0.133945 9.08249 0.0708656C8.77739 0.0314407 8.47229 0.0156707 8.1672 0.0156707C7.43966 -9.91968e-05 6.68083 0.12606 5.96894 0.36261C4.97542 0.693778 4.04449 1.2615 3.27784 2.01057C2.51901 2.75176 1.93229 3.6743 1.57243 4.68357C1.3925 5.18821 1.27516 5.71651 1.20475 6.2448C1.18128 6.46558 1.15781 6.7179 1.15781 7.01753C1.15781 7.30927 1.16563 7.56947 1.19693 7.84545C1.31427 8.93357 1.68195 9.99805 2.25303 10.9127C2.33908 11.0467 2.42513 11.1887 2.52683 11.3227C2.52683 11.3227 2.51901 11.3306 2.51119 11.3385C2.04963 11.9772 1.63501 12.6711 1.27516 13.3886C0.907476 14.1377 0.610203 14.9025 0.398982 15.6595C0.148647 16.5583 0.0234794 17.402 0.0156564 18.2457V19.0263L-0.0078125 20.6506L1.29862 20.6191C1.2908 21.3051 1.31427 21.9832 1.38468 22.6455C1.47855 23.5681 1.62719 24.3802 1.85406 25.1451C2.08092 25.902 2.42513 26.8719 3.16049 27.826L3.62987 28.4331L4.61557 29.7105L5.85942 28.6854L6.21928 28.3858C7.13457 29.1506 8.14373 29.8209 9.2233 30.3807C10.3576 30.9642 11.5624 31.4215 12.814 31.7527C14.1752 33.2114 15.7868 33.9841 17.5078 33.9841C19.2289 33.9841 20.8482 33.2114 22.2094 31.7448C23.4533 31.4136 24.6502 30.9563 25.7767 30.3728C26.8641 29.813 27.8655 29.1428 28.7807 28.3779L29.1406 28.6775L30.3845 29.7026L31.3701 28.4252L31.8395 27.8181C32.5671 26.8719 32.9191 25.8941 33.1381 25.153C33.365 24.3723 33.5136 23.5602 33.6075 22.6455C33.6701 21.9832 33.7014 21.2972 33.6936 20.6112L35 20.6428L34.9844 19.0185V18.2378C34.9687 17.3941 34.8435 16.5505 34.5932 15.6516C34.382 14.8946 34.0847 14.1298 33.717 13.3807C33.365 12.6632 32.9504 11.9693 32.481 11.3306C32.481 11.3306 32.4732 11.3148 32.4654 11.307C32.5671 11.165 32.6609 11.0231 32.747 10.8812C33.3102 9.97439 33.6701 8.9178 33.7874 7.83756C33.8187 7.56159 33.8266 7.30139 33.8266 7.01753C33.8266 6.71001 33.8031 6.44981 33.7796 6.22114C33.717 5.69285 33.5919 5.16456 33.4198 4.6678C33.0599 3.66641 32.4732 2.73599 31.7144 1.9948C30.9555 1.24573 30.0246 0.678008 29.0233 0.34684C28.3192 0.11029 27.5682 -0.0158691 26.7937 -0.0158691L26.7624 0.00778578Z" fill="white"/>
<path d="M19.3072 29.7816C19.3072 29.7816 19.2994 29.8053 19.2915 29.8131C18.7439 29.9393 18.1807 30.0103 17.6096 30.0103C17.0385 30.0103 16.5144 29.9472 15.9902 29.8289C15.9902 29.821 15.9824 29.8053 15.9746 29.7974C15.3409 28.8827 14.9107 27.7 14.7229 26.4541C14.6994 26.2964 14.5899 26.1624 14.4726 26.1466C14.3552 26.1309 14.2535 26.2176 14.2301 26.3674C14.1049 27.2269 14.1049 28.0627 14.2379 28.93C13.2444 26.0993 12.6185 23.5761 12.509 20.6902C12.4934 20.154 12.5325 19.5706 12.5794 19.0028C12.6968 18.9082 12.8141 18.8136 12.9393 18.719C12.9549 19.1684 12.9862 19.6021 13.0253 20.0358C13.1505 21.2579 13.3695 22.4486 13.6981 23.6707C13.7294 23.7969 13.8311 23.8836 13.9328 23.8915C13.9484 23.8915 13.9719 23.8915 13.9876 23.8915C14.1127 23.86 14.1909 23.7102 14.1831 23.5446C14.0501 21.8493 14.1284 20.1856 14.4335 18.514C14.4804 18.2695 14.5273 18.0251 14.5821 17.7728C15.5287 17.3549 16.5535 17.1262 17.6096 17.1262C18.6657 17.1262 19.6827 17.3549 20.6214 17.7649C20.6762 18.0093 20.731 18.2538 20.7701 18.5061C21.0673 20.1777 21.1534 21.8493 21.0204 23.5446C21.0048 23.7102 21.0908 23.86 21.216 23.8915C21.2316 23.8915 21.2551 23.8915 21.2707 23.8915C21.3724 23.8915 21.4663 23.8048 21.5054 23.6707C21.834 22.4486 22.053 21.2579 22.1782 20.0279C22.2173 19.5942 22.2486 19.1605 22.2643 18.7111C22.3894 18.8057 22.5146 18.9003 22.6398 19.0028C22.6867 19.5706 22.7102 20.1304 22.7102 20.6902C22.7102 23.45 22.1234 26.1939 21.0673 28.7408C21.1769 27.9365 21.169 27.1638 21.0517 26.3595C21.0282 26.2097 20.9265 26.123 20.8092 26.1387C20.6918 26.1545 20.5901 26.2886 20.5667 26.4463C20.3789 27.6842 19.9487 28.8669 19.315 29.7895L19.3072 29.7816ZM22.1939 13.1758C22.1939 13.9407 21.482 14.2167 20.3633 14.9263C19.5732 15.431 18.5796 16.5112 17.5001 16.5112C16.4205 16.5112 15.4192 15.4231 14.629 14.9184C13.526 14.2088 12.8141 13.9407 12.8141 13.1758C12.8141 11.8591 14.9107 11.7487 17.5079 11.7487C20.0973 11.7487 22.2017 11.8591 22.2017 13.1758H22.1939ZM17.2341 12.4583C16.1858 12.3479 15.2392 12.3479 14.1909 12.4583C13.127 12.6239 13.8389 13.2074 14.0501 13.2862C14.5977 13.4755 16.0293 12.8053 17.148 12.5766C17.2654 12.5529 17.3201 12.4741 17.2341 12.4662V12.4583ZM7.66658 3.68234C6.51661 3.68234 5.4918 4.19487 4.83467 4.99125C6.10199 4.64431 7.25979 5.2278 7.25979 5.2278C5.20235 5.39338 4.99895 7.81407 4.99895 7.81407C6.46967 6.25284 8.70704 6.7496 8.70704 6.7496C6.95469 7.75099 6.64177 9.1072 6.51661 9.84051C7.4006 8.98893 8.21419 8.65776 9.32506 8.31082C9.32506 8.31082 10.0135 7.33308 11.1556 6.28438C10.7723 4.78624 9.35635 3.68234 7.66658 3.68234V3.68234ZM32.6375 19.2H32.2151C32.2542 19.5548 32.2777 19.9175 32.2933 20.2802C32.3168 21.0214 32.2933 21.7705 32.2229 22.5195C32.1447 23.2686 32.0195 24.0177 31.8083 24.7668C31.5893 25.5158 31.2842 26.2728 30.7444 26.9745L30.1655 27.7236L29.4301 27.1165C29.2032 26.9272 28.9686 26.7301 28.7495 26.5409C27.6856 27.5896 26.4574 28.4648 25.1431 29.1429C23.9697 29.7501 22.7258 30.1995 21.4585 30.507C20.3163 31.8632 18.9551 32.5965 17.5157 32.5965C16.0763 32.5965 14.7151 31.8711 13.5729 30.5149C12.29 30.2153 11.0461 29.7579 9.86484 29.1508C8.55058 28.4727 7.32237 27.5975 6.25845 26.5488C6.03158 26.7459 5.80472 26.9351 5.57785 27.1244L4.84249 27.7315L4.26359 26.9824C3.7238 26.2807 3.41871 25.5237 3.19967 24.7746C2.98062 24.0256 2.85545 23.2765 2.77722 22.5274C2.70682 21.7784 2.68335 21.0372 2.70682 20.2881C2.72246 19.9254 2.74593 19.5627 2.78505 19.2H2.36261L1.4082 19.2315V18.2695C1.42385 17.4968 1.54902 16.7556 1.74459 16.046C1.94017 15.3363 2.20615 14.6661 2.52689 14.0195C2.84763 13.373 3.21531 12.7579 3.63775 12.1745C3.84897 11.8827 4.07584 11.5989 4.32617 11.3229C4.32617 11.3229 4.334 11.315 4.34182 11.3071C3.98979 10.9602 3.68469 10.5817 3.43435 10.1717C2.96498 9.4226 2.68335 8.57103 2.58947 7.71156C2.566 7.49078 2.55818 7.28578 2.55818 7.05711C2.55818 6.8521 2.57383 6.63132 2.5973 6.41843C2.64423 5.99264 2.74593 5.56685 2.88675 5.16472C3.1762 4.36045 3.64557 3.61926 4.25577 3.02789C4.85814 2.42863 5.60132 1.9713 6.41491 1.70321C7.22067 1.42724 8.08903 1.35628 8.94173 1.45878C9.37199 1.51398 9.78661 1.62437 10.1934 1.77418C10.6002 1.92399 10.9914 2.12112 11.359 2.36555C11.7893 2.64153 12.1804 2.98058 12.5247 3.37483C12.8689 3.12251 14.8011 1.07242 17.4922 2.34978C19.8939 1.00145 21.8809 2.92539 22.4598 3.36694C22.804 2.98058 23.1952 2.64153 23.6255 2.35767C23.9931 2.11323 24.3843 1.91611 24.7911 1.76629C25.1979 1.61648 25.6203 1.50609 26.0428 1.4509C26.8955 1.34839 27.7638 1.41936 28.5696 1.69533C29.3753 1.96342 30.1185 2.42075 30.7287 3.02001C31.3389 3.61138 31.8083 4.35257 32.0977 5.15683C32.2386 5.55897 32.3403 5.98475 32.3872 6.41054C32.4107 6.62344 32.4263 6.84422 32.4263 7.04923C32.4263 7.27 32.4263 7.4829 32.395 7.70368C32.3011 8.56314 32.0195 9.41472 31.5501 10.1638C31.2998 10.5738 30.9947 10.9602 30.6427 11.2992C30.6427 11.2992 30.6505 11.3071 30.6583 11.315C30.9087 11.591 31.1355 11.8748 31.3467 12.1666C31.7692 12.7501 32.1369 13.3651 32.4576 14.0117C32.7783 14.6582 33.0443 15.3284 33.2399 16.0381C33.4355 16.7477 33.5606 17.4889 33.5685 18.2617V19.2157L32.6219 19.1921L32.6375 19.2ZM12.4621 28.8827C11.273 26.7143 10.608 23.8915 10.5767 20.8874C10.2169 20.8164 9.86484 20.7218 9.52845 20.6271C9.43458 20.5956 9.3407 20.5641 9.25465 20.5325C7.44754 19.8229 6.16457 18.0566 6.16457 15.9829C6.16457 14.5399 6.79041 13.2389 7.77611 12.3479C8.06556 12.0877 8.40194 11.9616 8.60534 11.5831C8.80092 11.2046 8.91826 10.7709 9.09819 10.3609C9.63015 9.17028 10.6471 8.24774 11.9066 7.86138C11.9927 7.83772 12.0787 7.81407 12.157 7.79041C12.3917 7.7431 12.6264 7.71156 12.861 7.69579C12.9393 7.69579 13.0175 7.68791 13.0957 7.68002C14.1597 7.60117 15.2471 7.94811 16.2953 8.19255C17.7113 8.51583 18.7517 8.33448 19.9408 7.956C22.9527 6.98615 20.6918 3.58772 19.2837 3.73754C17.8756 3.88735 17.5079 7.36463 17.5079 7.36463C17.5079 7.36463 16.9994 3.73754 15.7321 3.73754C14.1362 3.73754 11.9614 6.16611 11.9614 6.16611L11.5937 5.12529C11.3825 4.53392 10.9992 3.99774 10.5063 3.57984C10.256 3.37483 9.98219 3.19347 9.69274 3.05155C9.40329 2.90962 9.08254 2.80711 8.7618 2.73615C8.11249 2.59422 7.42407 2.63364 6.79041 2.82288C6.14893 3.01212 5.55438 3.36694 5.07718 3.84004C4.59998 4.31314 4.2323 4.90451 4.0289 5.5432C3.9272 5.86648 3.86462 6.19765 3.84115 6.52882C3.83333 6.6944 3.8255 6.85999 3.84115 7.03346C3.84897 7.19116 3.86462 7.36462 3.90373 7.52232C4.12278 8.54737 4.61562 9.70646 7.4319 11.1258L6.33668 11.9931C6.13328 12.1508 5.92988 12.3558 5.73431 12.5687C5.53873 12.7895 5.35098 13.026 5.17106 13.2705C4.8112 13.7672 4.49828 14.2955 4.22448 14.8475C3.95067 15.3994 3.7238 15.9671 3.56734 16.5506C3.49694 16.8029 3.44218 17.0631 3.39524 17.3155C3.53605 17.3155 3.67687 17.2997 3.80986 17.2918L5.03024 17.1814L4.80338 18.3957C4.68603 19.0265 4.62345 19.6888 4.59215 20.3591C4.56869 21.0214 4.59215 21.6916 4.65474 22.3461C4.71732 23.0005 4.83467 23.6471 5.00677 24.2542C5.07718 24.5066 5.17106 24.7589 5.26493 24.9875C5.42139 24.8456 5.58567 24.7116 5.74213 24.5696L6.43055 23.9625L7.04075 24.6485C7.72917 25.4291 9.60668 27.558 12.5012 28.8906L12.4621 28.8827ZM13.5103 9.5803C13.3852 9.56453 13.2131 9.54876 13.0019 9.54876C12.243 9.54876 11.1713 9.72223 10.3733 10.558C10.0135 10.9444 9.99001 10.9681 9.92742 11.0469C9.91178 11.0706 9.88831 11.0942 9.85702 11.1336C9.97436 11.1336 10.0604 11.1652 10.1152 11.2125C10.1308 11.2283 10.1465 11.244 10.1699 11.2756C10.3029 11.4412 10.6628 11.8748 11.1791 11.8748C11.3121 11.8748 11.4373 11.8354 11.5781 11.7881C12.1726 11.591 13.1348 9.83262 13.5103 9.56453V9.5803ZM17.5079 31.6188C18.2745 31.6188 19.0255 31.3428 19.7296 30.8224H19.714C20.0112 30.5622 20.5667 30.0339 20.9031 29.6397C21.1612 29.3006 21.4116 28.93 21.6462 28.5121C22.8197 26.4226 23.469 23.6392 23.469 20.6587C23.469 17.7886 23.3986 14.8238 22.5381 12.7579C21.6775 10.6763 20.0738 9.70646 17.5001 9.70646C14.9263 9.70646 13.3304 10.6763 12.4621 12.7579C11.6094 14.8238 11.539 17.7964 11.539 20.6587C11.539 23.6313 12.1883 26.4226 13.3617 28.5121C13.5573 28.8591 13.7607 29.1745 13.9719 29.4662C13.9719 29.4662 13.9719 29.4662 13.9797 29.4662C14.0814 29.6081 14.2301 29.8053 14.4178 30.0181C15.3409 31.059 16.4049 31.6188 17.5001 31.6188H17.5079ZM25.4404 11.1888C25.4404 11.1888 25.3935 11.1258 25.37 11.1021C25.3074 11.0154 25.2839 10.9917 24.9241 10.6132C24.134 9.77743 23.0544 9.60396 22.2956 9.60396C22.0843 9.60396 21.9044 9.61973 21.7871 9.6355C21.9983 9.7932 22.2251 10.1244 22.4755 10.495C22.851 11.0469 23.2734 11.6698 23.7193 11.8512C23.8523 11.9064 23.9853 11.9379 24.1183 11.9379C24.6346 11.9379 24.9945 11.5042 25.1275 11.3387C25.1509 11.315 25.1666 11.2913 25.1822 11.2756C25.237 11.2204 25.323 11.1967 25.4404 11.1967V11.1888ZM27.623 5.2278C27.623 5.2278 28.7808 4.65219 30.0481 4.99125C29.391 4.19487 28.3662 3.68234 27.2162 3.68234C25.5264 3.68234 24.1105 4.79412 23.7272 6.28438C24.8693 7.3252 25.5577 8.30294 25.5577 8.30294C26.6686 8.64988 27.4822 8.98104 28.3662 9.83262C28.2332 9.09932 27.9281 7.7431 26.1757 6.74171C26.1757 6.74171 28.4209 6.24496 29.8838 7.80618C29.8838 7.80618 29.6804 5.3855 27.623 5.21991V5.2278Z" fill="#25408F"/>
</g>
<defs>
<clipPath id="clip0_336_17">
<rect width="35" height="34" fill="white"/>
</clipPath>
</defs>
</svg>
